<svg width="193" height="193" viewBox="0 0 193 193" fill="none" xmlns="http://www.w3.org/2000/svg">
<rect x="0.295654" y="0.737061" width="192" height="192" rx="32" fill="#FA7E61"/>
<path d="M27.2797 100.163C27.2797 97.6457 27.7063 95.3631 28.5597 93.3151C29.413 91.2244 30.629 89.4537 32.2077 88.003C33.7863 86.5097 35.6637 85.3577 37.8397 84.547C40.0157 83.6937 42.4263 83.267 45.0717 83.267C47.7597 83.267 50.1917 83.6937 52.3677 84.547C54.5437 85.3577 56.3997 86.5097 57.9357 88.003C59.5143 89.4964 60.7303 91.2884 61.5837 93.379C62.437 95.427 62.8637 97.6884 62.8637 100.163C62.8637 102.638 62.437 104.92 61.5837 107.011C60.7303 109.059 59.5143 110.83 57.9357 112.323C56.3997 113.774 54.5223 114.926 52.3037 115.779C50.1277 116.59 47.717 116.995 45.0717 116.995C42.4263 116.995 40.0157 116.59 37.8397 115.779C35.6637 114.926 33.7863 113.774 32.2077 112.323C30.629 110.83 29.413 109.059 28.5597 107.011C27.7063 104.92 27.2797 102.638 27.2797 100.163ZM37.3277 100.099C37.3277 102.403 38.0317 104.302 39.4397 105.795C40.8477 107.246 42.725 107.971 45.0717 107.971C47.461 107.971 49.3383 107.246 50.7037 105.795C52.1117 104.302 52.8157 102.403 52.8157 100.099C52.8157 97.795 52.1117 95.9177 50.7037 94.4671C49.3383 93.0164 47.461 92.291 45.0717 92.291C42.725 92.291 40.8477 93.0164 39.4397 94.4671C38.0317 95.9177 37.3277 97.795 37.3277 100.099ZM41.8717 100.099C41.8717 99.2031 42.1703 98.4777 42.7677 97.923C43.4077 97.3257 44.1757 97.0271 45.0717 97.0271C46.0103 97.0271 46.7783 97.3257 47.3757 97.923C47.973 98.4777 48.2717 99.2031 48.2717 100.099C48.2717 100.995 47.973 101.742 47.3757 102.339C46.7783 102.894 46.0103 103.171 45.0717 103.171C44.1757 103.171 43.4077 102.894 42.7677 102.339C42.1703 101.742 41.8717 100.995 41.8717 100.099ZM86.2342 83.267C88.1968 83.267 89.6688 83.715 90.6502 84.611C91.6742 85.4644 92.1862 86.6164 92.1862 88.067C92.1862 89.3897 91.8235 90.4991 91.0982 91.3951C90.4155 92.2484 89.4555 92.675 88.2182 92.675C87.3222 92.675 86.5755 92.5897 85.9782 92.4191C85.3808 92.2057 84.6982 92.0991 83.9302 92.0991C81.5408 92.0991 79.8555 93.2297 78.8742 95.4911V111.811C78.8742 113.475 78.4262 114.776 77.5302 115.715C76.6342 116.611 75.3542 117.059 73.6902 117.059C72.0262 117.059 70.7248 116.611 69.7862 115.715C68.8902 114.776 68.4422 113.475 68.4422 111.811V88.5791C68.4422 86.915 68.8902 85.6137 69.7862 84.675C70.7248 83.7364 72.0262 83.267 73.6902 83.267C75.2262 83.267 76.4208 83.6724 77.2742 84.483C78.1702 85.251 78.6822 86.3604 78.8102 87.811C79.7062 86.3604 80.8155 85.251 82.1382 84.483C83.5035 83.6724 84.8688 83.267 86.2342 83.267ZM125.473 83.267C126.155 83.267 126.795 83.395 127.393 83.6511C127.99 83.8644 128.523 84.1844 128.993 84.611C129.462 85.0377 129.825 85.5284 130.081 86.083C130.379 86.595 130.529 87.171 130.529 87.811C130.529 88.7924 130.443 89.5604 130.273 90.115C130.102 90.627 129.825 91.2457 129.441 91.9711L111.009 125.379C110.283 126.702 109.515 127.704 108.705 128.387C107.894 129.112 106.763 129.475 105.313 129.475C103.947 129.475 102.753 129.048 101.729 128.195C100.705 127.342 100.193 126.232 100.193 124.867C100.193 124.227 100.278 123.566 100.449 122.883C100.662 122.243 101.003 121.496 101.473 120.643L106.913 111.555L96.4807 92.675C95.8833 91.5657 95.4993 90.6697 95.3287 89.987C95.158 89.2617 95.0727 88.5364 95.0727 87.811C95.0727 87.1284 95.222 86.5097 95.5207 85.955C95.862 85.4004 96.2887 84.931 96.8007 84.547C97.3127 84.1204 97.8673 83.8004 98.4647 83.587C99.1047 83.3737 99.7233 83.267 100.321 83.267C101.771 83.267 102.859 83.587 103.585 84.2271C104.353 84.8244 105.078 85.8484 105.761 87.299L112.737 102.083L120.033 86.7871C120.63 85.5071 121.334 84.611 122.145 84.099C122.998 83.5444 124.107 83.267 125.473 83.267ZM155.543 83.267C159.425 83.267 162.391 84.4404 164.439 86.7871C166.529 89.1337 167.575 92.2697 167.575 96.195V111.875C167.575 113.496 167.105 114.776 166.167 115.715C165.271 116.611 163.991 117.059 162.327 117.059C160.663 117.059 159.361 116.611 158.423 115.715C157.527 114.776 157.079 113.496 157.079 111.875V97.795C157.079 95.8751 156.588 94.4457 155.607 93.507C154.625 92.5684 153.239 92.0991 151.447 92.0991C150.124 92.0991 148.951 92.3977 147.927 92.9951C146.945 93.5497 146.199 94.4244 145.687 95.619V111.875C145.687 113.496 145.217 114.776 144.279 115.715C143.383 116.611 142.124 117.059 140.503 117.059C138.839 117.059 137.537 116.611 136.599 115.715C135.703 114.776 135.255 113.496 135.255 111.875V88.515C135.255 86.8937 135.703 85.6137 136.599 84.675C137.537 83.7364 138.839 83.267 140.503 83.267C142.039 83.267 143.255 83.6937 144.151 84.547C145.089 85.3577 145.601 86.5097 145.687 88.003C146.711 86.5097 148.055 85.3577 149.719 84.547C151.425 83.6937 153.367 83.267 155.543 83.267Z" fill="#474973"/>
</svg>
