<svg width="97" height="17" viewBox="0 0 97 17" fill="none" xmlns="http://www.w3.org/2000/svg">
<path d="M13.4106 6.16904H10.6319C10.5526 5.69009 10.4065 5.26581 10.1935 4.89619C9.98054 4.52136 9.71555 4.2038 9.39855 3.9435C9.08155 3.6832 8.71997 3.48798 8.31382 3.35783C7.91261 3.22248 7.47921 3.1548 7.01362 3.1548C6.18645 3.1548 5.45339 3.37345 4.81443 3.81075C4.17548 4.24284 3.67522 4.87797 3.31364 5.71612C2.95206 6.54907 2.77127 7.56684 2.77127 8.76941C2.77127 9.99281 2.95206 11.0236 3.31364 11.8617C3.68017 12.6947 4.18044 13.3246 4.81443 13.7515C5.45339 14.1732 6.18397 14.384 7.00619 14.384C7.46188 14.384 7.88785 14.3215 8.2841 14.1966C8.6853 14.0665 9.0444 13.8764 9.3614 13.6266C9.68335 13.3767 9.9533 13.0695 10.1712 12.7051C10.3941 12.3407 10.5477 11.9242 10.6319 11.4557L13.4106 11.4713C13.3066 12.2314 13.0812 12.9446 12.7345 13.6109C12.3927 14.2773 11.9445 14.8656 11.3897 15.3757C10.835 15.8807 10.1861 16.2764 9.44313 16.5627C8.70016 16.8438 7.87546 16.9844 6.96904 16.9844C5.6317 16.9844 4.438 16.659 3.38794 16.0083C2.33787 15.3575 1.5107 14.4179 0.906421 13.1893C0.30214 11.9607 0 10.4874 0 8.76941C0 7.04624 0.304617 5.57296 0.913851 4.34956C1.52308 3.12096 2.35273 2.18129 3.40279 1.53055C4.45286 0.879804 5.64161 0.554433 6.96904 0.554433C7.81603 0.554433 8.60357 0.679375 9.33168 0.92926C10.0598 1.17915 10.7086 1.54617 11.2783 2.03032C11.8479 2.50926 12.3159 3.09754 12.6825 3.79513C13.054 4.48752 13.2967 5.27882 13.4106 6.16904Z" fill="black"/>
<path d="M18.9239 0.773082V16.7657H16.2344V0.773082H18.9239Z" fill="black"/>
<path d="M27.0859 17C25.9715 17 25.0056 16.7423 24.1884 16.2269C23.3711 15.7115 22.7371 14.9905 22.2864 14.0639C21.8406 13.1372 21.6177 12.0544 21.6177 10.8153C21.6177 9.57633 21.8406 8.49089 22.2864 7.55903C22.7371 6.62716 23.3711 5.90354 24.1884 5.38815C25.0056 4.87276 25.9715 4.61507 27.0859 4.61507C28.2004 4.61507 29.1663 4.87276 29.9835 5.38815C30.8008 5.90354 31.4323 6.62716 31.8781 7.55903C32.3288 8.49089 32.5542 9.57633 32.5542 10.8153C32.5542 12.0544 32.3288 13.1372 31.8781 14.0639C31.4323 14.9905 30.8008 15.7115 29.9835 16.2269C29.1663 16.7423 28.2004 17 27.0859 17ZM27.1008 14.7354C27.7051 14.7354 28.2103 14.561 28.6165 14.2122C29.0226 13.8582 29.3248 13.3845 29.5229 12.791C29.726 12.1975 29.8275 11.5364 29.8275 10.8075C29.8275 10.0735 29.726 9.40974 29.5229 8.81626C29.3248 8.21758 29.0226 7.74123 28.6165 7.38723C28.2103 7.03323 27.7051 6.85622 27.1008 6.85622C26.4817 6.85622 25.9665 7.03323 25.5554 7.38723C25.1493 7.74123 24.8447 8.21758 24.6416 8.81626C24.4435 9.40974 24.3444 10.0735 24.3444 10.8075C24.3444 11.5364 24.4435 12.1975 24.6416 12.791C24.8447 13.3845 25.1493 13.8582 25.5554 14.2122C25.9665 14.561 26.4817 14.7354 27.1008 14.7354Z" fill="black"/>
<path d="M42.5291 11.7212V4.77124H45.2186V16.7657H42.6108V14.6339H42.4919C42.2343 15.3055 41.8109 15.8547 41.2214 16.2816C40.637 16.7085 39.9163 16.9219 39.0594 16.9219C38.3115 16.9219 37.6502 16.7475 37.0757 16.3987C36.5061 16.0447 36.0603 15.5319 35.7383 14.8604C35.4164 14.1836 35.2554 13.3663 35.2554 12.4084V4.77124H37.945V11.9711C37.945 12.7311 38.1431 13.335 38.5393 13.7827C38.9356 14.2304 39.4557 14.4543 40.0996 14.4543C40.4958 14.4543 40.8797 14.3528 41.2512 14.1497C41.6226 13.9467 41.9273 13.6448 42.165 13.2439C42.4077 12.8379 42.5291 12.3303 42.5291 11.7212Z" fill="black"/>
<path d="M52.6377 16.9766C51.7411 16.9766 50.9387 16.7345 50.2304 16.2503C49.5222 15.7662 48.9624 15.0634 48.5513 14.1419C48.1402 13.2205 47.9347 12.1012 47.9347 10.7841C47.9347 9.45139 48.1427 8.3269 48.5588 7.41066C48.9798 6.48921 49.5469 5.79421 50.2602 5.32568C50.9734 4.85194 51.7684 4.61507 52.6451 4.61507C53.3138 4.61507 53.8636 4.7348 54.2945 4.97428C54.7254 5.20854 55.0672 5.49227 55.3198 5.82545C55.5724 6.15342 55.768 6.46318 55.9067 6.75471H56.0182V0.773082H58.7151V16.7657H56.0702V14.876H55.9067C55.768 15.1675 55.5674 15.4773 55.3049 15.8052C55.0424 16.128 54.6957 16.4039 54.2648 16.633C53.8338 16.862 53.2915 16.9766 52.6377 16.9766ZM53.3881 14.6573C53.9577 14.6573 54.4431 14.4959 54.8443 14.1732C55.2455 13.8452 55.5501 13.3897 55.7581 12.8066C55.9662 12.2236 56.0702 11.5442 56.0702 10.7685C56.0702 9.9928 55.9662 9.31863 55.7581 8.74598C55.5551 8.17333 55.2529 7.72822 54.8517 7.41066C54.4555 7.09309 53.9676 6.93431 53.3881 6.93431C52.7887 6.93431 52.2885 7.0983 51.8873 7.42628C51.4861 7.75425 51.1839 8.20717 50.9808 8.78503C50.7778 9.36289 50.6762 10.024 50.6762 10.7685C50.6762 11.5181 50.7778 12.1871 50.9808 12.7754C51.1889 13.3584 51.4935 13.8192 51.8947 14.1576C52.3008 14.4907 52.7986 14.6573 53.3881 14.6573Z" fill="black"/>
<path d="M62.1185 0.773082H65.4915L70.0088 12.3615H70.1871L72.4457 6.5673L74.7043 0.773082H78.0774V16.7657H75.4324V5.77859H75.2913L71.0861 16.7189H69.1098L64.9046 5.75517H64.7634V16.7657H62.1185V0.773082Z" fill="#9969FF"/>
<path d="M81.3786 16.7657V4.77124H84.0681V16.7657H81.3786ZM82.7308 3.0689C82.3048 3.0689 81.9383 2.92053 81.6312 2.62379C81.3241 2.32185 81.1705 1.96004 81.1705 1.53835C81.1705 1.11147 81.3241 0.749656 81.6312 0.452917C81.9383 0.150973 82.3048 0 82.7308 0C83.1617 0 83.5282 0.150973 83.8304 0.452917C84.1375 0.749656 84.291 1.11147 84.291 1.53835C84.291 1.96004 84.1375 2.32185 83.8304 2.62379C83.5282 2.92053 83.1617 3.0689 82.7308 3.0689Z" fill="#9969FF"/>
<path d="M89.4514 4.77124L91.7546 9.1989L94.095 4.77124H96.9406L93.5006 10.7685L97 16.7657H94.1693L91.7546 12.4474L89.3623 16.7657H86.5093L89.9864 10.7685L86.5984 4.77124H89.4514Z" fill="#9969FF"/>
</svg>
